<?xml version="1.0" encoding="utf-8"?>
<!-- Generator: Adobe Illustrator 16.0.0, SVG Export Plug-In . SVG Version: 6.00 Build 0)  -->
<!DOCTYPE svg PUBLIC "-//W3C//DTD SVG 1.1//EN" "http://www.w3.org/Graphics/SVG/1.1/DTD/svg11.dtd">
<svg version="1.1" id="Layer_1" xmlns="http://www.w3.org/2000/svg" xmlns:xlink="http://www.w3.org/1999/xlink" x="0px" y="0px"
	 width="841.89px" height="595.28px" viewBox="0 0 841.89 595.28" enable-background="new 0 0 841.89 595.28" xml:space="preserve">
<text transform="matrix(1.0989 0 0 1 243.9546 318.375)"><tspan x="0" y="0" fill="#FFFFFF" font-family="'PlayfairDisplay-Italic'" font-size="17.1264" letter-spacing="4.55">even</tspan><tspan x="54.251" y="0" fill="#FFFFFF" font-family="'PlayfairDisplay-Italic'" font-size="17.1264" letter-spacing="4.55">t styli</tspan><tspan x="130.724" y="0" fill="#FFFFFF" font-family="'PlayfairDisplay-Italic'" font-size="17.1264" letter-spacing="4.55">ng</tspan><tspan x="158.594" y="0" fill="#FFFFFF" font-family="'PlayfairDisplay-Italic'" font-size="17.1264" letter-spacing="4.55"> a</tspan><tspan x="182.158" y="0" fill="#FFFFFF" font-family="'PlayfairDisplay-Italic'" font-size="17.1264" letter-spacing="4.55">n</tspan><tspan x="197.213" y="0" fill="#FFFFFF" font-family="'PlayfairDisplay-Italic'" font-size="17.1264" letter-spacing="4.55">d d</tspan><tspan x="235.524" y="0" fill="#FFFFFF" font-family="'PlayfairDisplay-Italic'" font-size="17.1264" letter-spacing="4.55">ec</tspan><tspan x="260.517" y="0" fill="#FFFFFF" font-family="'PlayfairDisplay-Italic'" font-size="17.1264" letter-spacing="4.55">o</tspan><tspan x="274.008" y="0" fill="#FFFFFF" font-family="'PlayfairDisplay-Italic'" font-size="17.1264">r</tspan></text>
<text transform="matrix(1 0 0 1 209.3096 291.5693)"><tspan x="0" y="0" fill="#FFFFFF" font-family="'Muli-Bold'" font-size="39.7083" letter-spacing="11">FI</tspan><tspan x="56.196" y="0" fill="#FFFFFF" font-family="'Muli-Bold'" font-size="39.7083">G</tspan></text>
<text transform="matrix(1.1494 0 0 1 306.7256 291.5693)" fill="#FFFFFF" font-family="'PlayfairDisplay-Regular'" font-size="69.6248">&amp;</text>
<text transform="matrix(1.1494 0 0 1 373.7026 291.5693)" fill="#FFFFFF" font-family="'PlayfairDisplay-Regular'" font-size="14.3345"> </text>
<text transform="matrix(1 0 0 1 378.2998 291.5693)"><tspan x="0" y="0" fill="#FFFFFF" font-family="'Muli-Bold'" font-size="39.7083" letter-spacing="11">FORES</tspan><tspan x="186.664" y="0" fill="#FFFFFF" font-family="'Muli-Bold'" font-size="39.7083">T</tspan></text>
<text transform="matrix(1 0 0 1 278.6011 375.1113)"><tspan x="0" y="0" fill="#FFFFFF" font-family="'Muli-Bold'" font-size="11.8277" letter-spacing="5">WEBSIT</tspan><tspan x="75.045" y="0" fill="#FFFFFF" font-family="'Muli-Bold'" font-size="11.8277">E</tspan></text>
<text transform="matrix(1 0 0 1 365.9678 375.1113)" fill="#FFFFFF" font-family="'Muli-Bold-SC700'" font-size="16.8967"> </text>
<text transform="matrix(1 0 0 1 375.9951 375.1113)"><tspan x="0" y="0" fill="#FFFFFF" font-family="'Muli-Bold'" font-size="11.8277" letter-spacing="5">COMIN</tspan><tspan x="67.528" y="0" fill="#FFFFFF" font-family="'Muli-Bold'" font-size="11.8277">G</tspan></text>
<text transform="matrix(1 0 0 1 457.5078 375.1113)" fill="#FFFFFF" font-family="'Muli-Bold-SC700'" font-size="16.8967"> </text>
<text transform="matrix(1 0 0 1 467.5352 375.1113)"><tspan x="0" y="0" fill="#FFFFFF" font-family="'Muli-Bold'" font-size="11.8277" letter-spacing="5">SOO</tspan><tspan x="41.741" y="0" fill="#FFFFFF" font-family="'Muli-Bold'" font-size="11.8277">N</tspan></text>
</svg>
